<svg width="112" height="22" viewBox="0 0 112 22" fill="none" xmlns="http://www.w3.org/2000/svg">
<path d="M104.951 21.8564C100.672 21.8564 97.9011 19.0243 97.9011 14.6223C97.9011 10.2202 100.672 7.38809 104.951 7.38809C109.23 7.38809 112 10.2202 112 14.6223C112 19.0243 109.23 21.8564 104.951 21.8564ZM100.672 14.6223C100.672 17.362 102.303 19.3937 104.951 19.3937C107.629 19.3937 109.23 17.362 109.23 14.6223C109.23 11.8517 107.629 9.85079 104.951 9.85079C102.303 9.85079 100.672 11.8517 100.672 14.6223Z" fill="#023E8A"/>
<path d="M88.9841 7.69593H91.6931V10.0355C92.555 8.37317 94.0327 7.38809 96.2183 7.38809V10.5896H95.8797C93.417 10.5896 91.6931 11.2976 91.6931 14.8993V21.5486H88.9841V7.69593Z" fill="#023E8A"/>
<path d="M80.4366 3.32465H83.1456V7.69593H86.501V10.0971H83.1456V17.5159C83.1456 18.4087 83.3919 19.1475 84.7463 19.1475H86.8088V21.5486H84.0075C81.4833 21.5486 80.4366 20.2865 80.4366 17.8853V10.0971H78.6819V7.69593H80.4366V3.32465Z" fill="#023E8A"/>
<path d="M64.0604 13.5756C64.0604 9.72765 66.5539 7.38809 70.4019 7.38809C74.2498 7.38809 76.7125 9.72765 76.7125 13.5756V21.5486H74.0036V14.3144C74.0036 11.2976 72.5567 9.85079 70.4019 9.85079C68.247 9.85079 66.7694 11.2976 66.7694 14.3144V21.5486H64.0604V13.5756Z" fill="#023E8A"/>
<path d="M58.4717 7.69594H61.1806V21.5486H58.4717V7.69594ZM57.9791 3.10917C57.9791 2.09331 58.7487 1.26215 59.8261 1.26215C60.9344 1.26215 61.704 2.09331 61.704 3.10917C61.704 4.15582 60.9344 4.98697 59.8261 4.98697C58.7487 4.98697 57.9791 4.15582 57.9791 3.10917Z" fill="#023E8A"/>
<path d="M48.9146 21.8564C44.6356 21.8564 41.8651 19.0243 41.8651 14.6223C41.8651 10.2202 44.6356 7.38809 48.9146 7.38809C53.1935 7.38809 55.964 10.2202 55.964 14.6223C55.964 19.0243 53.1935 21.8564 48.9146 21.8564ZM44.6356 14.6223C44.6356 17.362 46.2672 19.3937 48.9146 19.3937C51.5928 19.3937 53.1935 17.362 53.1935 14.6223C53.1935 11.8517 51.5928 9.85079 48.9146 9.85079C46.2672 9.85079 44.6356 11.8517 44.6356 14.6223Z" fill="#023E8A"/>
<path d="M36.706 0H39.415V21.5486H36.706V0Z" fill="#023E8A"/>
<path d="M31.0543 0H33.7632V21.5486H31.0543V0Z" fill="#023E8A"/>
<path d="M28.4406 17.1465C27.5479 20.0094 25.3314 21.8564 22.0068 21.8564C17.6355 21.8564 15.0497 18.9935 15.0497 14.6223C15.0497 10.2202 17.5124 7.38809 21.7605 7.38809C25.7008 7.38809 28.5022 10.2202 28.5022 14.1913C28.5022 15.1456 28.4098 15.3611 28.3482 15.6381H17.8818C18.2204 17.8545 19.6672 19.3937 22.0068 19.3937C23.7615 19.3937 24.7773 18.4394 25.4854 17.1465H28.4406ZM17.9126 13.4833H25.6393C25.6393 12.0364 24.3156 9.85079 21.7605 9.85079C19.5441 9.85079 18.2204 11.3284 17.9126 13.4833Z" fill="#023E8A"/>
<path d="M0 0H2.70897V9.32746C3.69404 8.1269 5.07931 7.38809 6.86477 7.38809C9.97392 7.38809 12.6829 9.72765 12.6829 13.5756V21.5486H9.97392V14.3144C9.97392 11.2976 8.55787 9.85078 6.37223 9.85078C4.18658 9.85078 2.70897 11.2976 2.70897 14.3144V21.5486H0V0Z" fill="#023E8A"/>
</svg>
